<?xml version="1.0" standalone="no"?>
<!DOCTYPE svg PUBLIC "-//W3C//DTD SVG 20010904//EN"
 "http://www.w3.org/TR/2001/REC-SVG-20010904/DTD/svg10.dtd">
<svg version="1.0" xmlns="http://www.w3.org/2000/svg"
 width="280.000000pt" height="100.000000pt" viewBox="0 0 280.000000 100.000000"
 preserveAspectRatio="xMidYMid meet">

<g transform="translate(0.000000,100.000000) scale(0.100000,-0.100000)"
fill="#000000" stroke="none">
<path d="M1041 905 c-60 -77 -65 -389 -7 -491 32 -57 52 -52 46 11 -3 28 -5
152 -5 278 0 125 -3 227 -7 227 -4 0 -16 -11 -27 -25z"/>
<path d="M1188 913 c-27 -32 -36 -57 -47 -136 -14 -103 -13 -175 3 -269 13
-69 45 -138 64 -138 4 0 7 126 7 280 0 154 -3 280 -6 280 -3 0 -13 -8 -21 -17z"/>
<path d="M35 715 c-32 -33 -35 -41 -35 -93 1 -98 47 -210 99 -237 42 -21 286
-18 331 5 46 24 56 23 52 -2 -5 -27 16 -20 42 16 30 39 36 205 10 271 -15 39
-45 75 -64 75 -3 0 -5 -56 -5 -124 0 -119 -1 -126 -25 -151 -29 -32 -83 -57
-104 -49 -22 8 -28 30 -33 127 -6 94 -15 105 -54 66 -19 -19 -21 -30 -17 -101
5 -78 4 -80 -21 -90 -35 -13 -85 12 -108 54 -14 26 -18 56 -18 150 0 65 -3
118 -7 118 -4 0 -23 -16 -43 -35z"/>
<path d="M710 728 c-87 -45 -126 -132 -101 -225 23 -84 88 -133 176 -133 62 0
110 22 129 59 29 56 21 63 -34 29 -43 -27 -56 -30 -100 -26 -72 7 -110 44
-110 108 0 57 30 107 82 135 35 19 38 19 73 2 19 -9 40 -28 45 -42 12 -31 -1
-69 -27 -80 -48 -19 -77 -24 -94 -15 -26 15 -32 -4 -8 -28 42 -46 155 -18 192
46 24 41 17 89 -20 133 -52 61 -128 75 -203 37z"/>
<path d="M1306 728 c-65 -99 -30 -358 48 -358 1 0 2 53 1 118 0 129 10 159 66
188 102 52 164 -26 164 -208 l-1 -96 27 13 c40 21 53 64 45 147 -10 104 -44
171 -103 201 -51 27 -141 17 -184 -19 -22 -20 -31 -17 -27 8 4 30 -18 34 -36
6z"/>
<path d="M1828 736 c-39 -17 -88 -66 -104 -103 -38 -89 3 -204 88 -249 66 -34
191 -4 217 53 21 47 8 71 -20 36 -34 -41 -126 -55 -179 -28 -38 20 -50 43 -50
101 0 60 28 106 80 129 38 17 43 17 76 2 93 -45 45 -144 -68 -140 -43 2 -48
-9 -16 -31 30 -21 84 -20 135 3 50 23 63 45 63 105 0 98 -123 166 -222 122z"/>
<path d="M2210 743 c-77 -28 -110 -63 -110 -118 0 -48 36 -70 135 -84 116 -16
123 -18 136 -43 9 -17 7 -24 -10 -42 -29 -28 -149 -35 -205 -12 -48 20 -56 14
-29 -22 29 -40 60 -52 133 -52 88 0 145 27 166 77 34 79 -20 135 -140 146 -83
8 -116 21 -116 47 0 48 130 66 207 29 24 -12 47 -18 50 -15 11 11 -32 60 -68
78 -32 16 -117 23 -149 11z"/>
<path d="M2552 737 c-43 -14 -92 -70 -92 -106 0 -54 25 -70 144 -90 116 -21
149 -38 130 -69 -6 -9 -22 -23 -35 -29 -33 -17 -142 -16 -185 2 -34 14 -35 14
-32 -7 5 -39 63 -68 134 -68 114 0 184 47 184 124 0 53 -47 85 -145 97 -98 12
-125 23 -125 49 0 47 129 66 207 30 50 -22 61 -13 31 25 -40 51 -133 69 -216
42z"/>
<path d="M400 168 c0 -32 4 -58 9 -58 15 0 18 80 4 99 -10 13 -12 7 -13 -41z"/>
<path d="M1850 165 c0 -30 5 -55 10 -55 6 0 10 25 10 55 0 30 -4 55 -10 55 -5
0 -10 -25 -10 -55z"/>
<path d="M1090 156 c0 -25 5 -48 10 -51 6 -4 10 13 10 44 0 28 -4 51 -10 51
-5 0 -10 -20 -10 -44z"/>
<path d="M452 152 c1 -16 -2 -34 -6 -40 -5 -8 -1 -10 8 -6 17 7 22 59 7 69 -5
3 -9 -8 -9 -23z"/>
<path d="M620 160 c0 -19 3 -21 12 -12 9 9 9 15 0 24 -9 9 -12 7 -12 -12z"/>
<path d="M780 144 c0 -21 4 -34 11 -32 6 2 10 7 10 11 -1 4 -1 18 -1 32 0 14
-4 25 -10 25 -5 0 -10 -16 -10 -36z"/>
<path d="M910 148 c0 -22 6 -38 15 -41 11 -5 13 0 8 26 -9 48 -23 57 -23 15z"/>
<path d="M960 145 c0 -19 5 -35 10 -35 6 0 10 16 10 35 0 19 -4 35 -10 35 -5
0 -10 -16 -10 -35z"/>
<path d="M1230 173 c1 -5 9 -24 20 -43 15 -29 20 -32 25 -18 4 11 0 24 -9 33
-9 9 -16 21 -16 26 0 5 -4 9 -10 9 -5 0 -10 -3 -10 -7z"/>
<path d="M1530 168 c1 -17 35 -58 49 -58 18 0 12 14 -19 43 -17 17 -30 23 -30
15z"/>
<path d="M1730 146 c0 -20 5 -36 10 -36 6 0 10 13 10 29 0 17 -4 33 -10 36 -6
4 -10 -8 -10 -29z"/>
<path d="M1982 168 c-16 -16 -15 -33 1 -46 10 -9 13 -4 13 23 0 19 0 35 -1 35
-1 0 -6 -5 -13 -12z"/>
<path d="M2028 163 c7 -12 7 -25 1 -34 -14 -22 -11 -33 7 -19 18 16 15 61 -4
68 -11 3 -12 0 -4 -15z"/>
<path d="M2160 165 c-14 -17 -5 -51 17 -59 13 -5 14 -4 3 9 -7 8 -10 25 -6 40
7 29 4 31 -14 10z"/>
<path d="M2204 145 c0 -35 9 -45 21 -24 8 12 -2 59 -13 59 -4 0 -8 -16 -8 -35z"/>
<path d="M2330 145 c0 -19 5 -35 10 -35 6 0 10 16 10 35 0 19 -4 35 -10 35 -5
0 -10 -16 -10 -35z"/>
<path d="M2380 146 c0 -20 5 -36 10 -36 6 0 10 13 10 29 0 17 -4 33 -10 36 -6
4 -10 -8 -10 -29z"/>
<path d="M574 157 c-7 -20 1 -47 16 -47 12 0 13 30 0 50 -8 12 -10 12 -16 -3z"/>
<path d="M740 126 c0 -8 5 -18 10 -21 6 -3 10 3 10 14 0 12 -4 21 -10 21 -5 0
-10 -6 -10 -14z"/>
<path d="M1686 131 c-3 -5 1 -14 9 -21 11 -9 14 -8 12 9 -1 22 -12 28 -21 12z"/>
</g>
</svg>
