<?xml version="1.0" standalone="no"?>
<!DOCTYPE svg PUBLIC "-//W3C//DTD SVG 20010904//EN"
 "http://www.w3.org/TR/2001/REC-SVG-20010904/DTD/svg10.dtd">
<svg version="1.0" xmlns="http://www.w3.org/2000/svg"
 width="280.000000pt" height="100.000000pt" viewBox="0 0 280.000000 100.000000"
 preserveAspectRatio="xMidYMid meet">
<metadata>
Created by potrace 1.16, written by Peter Selinger 2001-2019
</metadata>
<g transform="translate(0.000000,100.000000) scale(0.100000,-0.100000)"
fill="#000000" stroke="none">
<path d="M1780 893 c-19 -15 -57 -44 -85 -64 -99 -74 -236 -219 -280 -295 -13
-24 -23 -30 -41 -26 -14 2 -35 -5 -54 -18 -49 -35 -44 -18 10 39 53 56 61 80
33 102 -21 18 -129 16 -165 -3 -36 -19 -128 -104 -128 -117 0 -6 -12 -8 -30
-5 -18 4 -36 1 -45 -6 -9 -7 -15 -8 -15 -2 0 6 3 12 8 14 12 5 62 76 62 88 0
6 -11 22 -25 35 -25 26 -88 35 -100 15 -9 -14 -41 -13 -66 2 -17 11 -22 10
-35 -7 -8 -11 -13 -29 -10 -39 5 -20 -13 -51 -77 -129 -26 -32 -38 -54 -34
-67 4 -17 0 -20 -28 -20 l-34 0 17 30 c9 16 20 30 25 30 4 0 7 6 7 13 0 6 11
25 25 41 14 16 25 33 25 37 0 4 6 14 14 21 7 8 21 27 30 43 9 17 25 44 36 60
11 18 19 49 19 78 1 43 -2 49 -31 67 -41 25 -58 25 -112 -1 -64 -30 -216 -187
-216 -223 0 -13 -14 -16 -83 -16 -85 0 -107 -8 -107 -41 0 -22 53 -43 94 -36
l34 5 -52 -54 -51 -55 -5 28 c-11 59 -130 96 -192 61 -61 -36 -68 -48 -68
-119 l0 -68 43 -26 c87 -51 172 -20 302 108 47 47 85 92 85 101 0 13 12 16 59
16 33 0 68 3 78 6 11 4 14 3 7 -3 -18 -13 -64 -100 -64 -121 0 -10 8 -26 18
-35 16 -15 82 -17 622 -19 l605 -3 38 -37 c23 -23 48 -38 63 -38 23 0 24 -2
24 -80 l0 -80 65 0 c51 0 65 3 65 15 0 10 -11 15 -35 15 -36 0 -47 13 -20 24
18 7 20 46 3 47 -7 0 2 5 20 10 28 8 33 14 30 37 -3 23 -9 28 -40 32 l-36 5
22 28 23 28 331 -1 332 -1 0 31 c0 20 -5 30 -15 30 -28 0 -15 15 35 39 45 22
50 28 50 58 0 23 -5 33 -15 33 -8 0 -15 4 -15 9 0 5 7 11 15 15 10 4 15 20 15
54 0 42 -3 50 -25 60 -16 7 -32 8 -43 3 -9 -5 -30 -15 -45 -22 -16 -7 -53 -37
-83 -66 -30 -30 -63 -53 -75 -53 -11 0 -34 -9 -50 -21 -46 -32 -34 -14 36 59
52 54 65 73 65 100 0 27 -4 32 -24 32 -15 0 -33 -12 -49 -32 -14 -18 -50 -59
-80 -90 -30 -32 -58 -65 -61 -74 -6 -16 -8 -16 -22 -2 -15 14 -12 21 35 69 58
61 66 97 27 118 -12 7 -34 11 -47 9 -19 -2 -25 -10 -27 -38 -3 -25 -17 -49
-50 -85 -81 -87 -94 -107 -88 -137 5 -27 4 -28 -41 -28 l-46 0 27 26 c14 15
26 31 26 36 0 5 9 18 20 30 10 11 26 36 35 54 9 19 22 34 30 34 7 0 15 6 18
13 7 20 -15 57 -34 57 -10 0 -21 5 -24 10 -8 12 -79 13 -103 1 -9 -5 -29 -14
-44 -21 -38 -18 -108 -85 -108 -104 0 -9 -4 -16 -10 -16 -5 0 -10 -13 -10 -29
0 -17 5 -33 10 -36 18 -11 11 -24 -15 -31 -14 -3 -30 -15 -36 -26 -8 -15 -14
-17 -22 -9 -6 6 -22 11 -37 11 -24 1 -24 1 -5 12 57 31 105 96 105 141 0 16 7
26 20 30 26 7 26 41 -1 65 -24 23 -66 33 -100 25 -37 -9 -105 -59 -131 -96
-33 -47 -44 -57 -65 -57 -23 0 -73 -22 -73 -32 0 -5 -9 -8 -19 -8 -11 0 -23
-4 -26 -10 -8 -13 -45 -13 -45 0 0 6 4 10 9 10 5 0 11 9 14 20 4 15 14 20 37
20 29 0 90 32 98 52 2 4 10 8 17 8 7 0 15 3 17 8 2 4 28 26 59 49 31 23 62 47
70 55 8 7 32 26 54 43 65 48 122 112 128 141 9 48 1 54 -72 54 -56 -1 -72 -5
-101 -27z m-1012 -160 c-19 -43 -53 -104 -73 -131 -13 -18 -26 -38 -29 -45 -5
-9 -7 -9 -12 1 -3 7 -24 12 -50 12 -24 0 -44 3 -44 6 0 8 92 117 108 127 7 5
18 14 25 22 12 14 81 21 75 8z"/>
<path d="M893 253 c-9 -3 -13 -31 -13 -89 l0 -84 64 0 65 0 7 46 c7 49 0 112
-14 126 -5 5 -16 6 -25 2 -13 -5 -17 -20 -17 -69 0 -35 -4 -67 -10 -70 -6 -4
-10 20 -10 63 0 55 -3 71 -16 76 -9 3 -16 6 -17 5 -1 0 -8 -3 -14 -6z"/>
<path d="M1300 230 c0 -22 6 -33 18 -36 14 -4 16 -14 14 -59 l-4 -55 31 0 c31
0 31 0 31 54 0 46 3 56 21 61 15 5 19 14 17 33 -3 26 -6 27 -65 30 l-63 3 0
-31z"/>
<path d="M2155 230 c-16 -31 -20 -116 -6 -138 5 -9 27 -12 72 -10 l64 3 3 64
c4 80 -19 111 -79 111 -32 0 -41 -5 -54 -30z"/>
<path d="M630 165 l0 -85 30 0 c23 0 30 4 30 20 0 13 7 20 20 20 13 0 20 -7
20 -20 0 -14 7 -20 24 -20 20 0 24 6 29 46 7 65 -2 124 -20 124 -24 0 -53 -20
-53 -35 0 -8 -4 -15 -10 -15 -5 0 -10 9 -10 19 0 19 -18 31 -46 31 -11 0 -14
-18 -14 -85z"/>
<path d="M1680 165 l0 -85 30 0 c23 0 30 4 30 20 0 11 7 20 15 20 8 0 15 -9
15 -20 0 -16 7 -20 30 -20 l30 0 0 80 c0 61 -4 82 -14 86 -19 7 -56 -13 -56
-31 0 -8 -4 -15 -10 -15 -5 0 -10 9 -10 19 0 19 -18 31 -46 31 -11 0 -14 -18
-14 -85z"/>
<path d="M2572 218 c-20 -49 -28 -69 -40 -106 l-10 -32 84 0 c76 0 101 8 74
25 -5 3 -10 19 -10 35 0 15 -7 30 -15 34 -8 3 -15 14 -15 25 0 59 -47 72 -68
19z"/>
</g>
</svg>
