<?xml version="1.0" standalone="no"?>
<!DOCTYPE svg PUBLIC "-//W3C//DTD SVG 20010904//EN"
 "http://www.w3.org/TR/2001/REC-SVG-20010904/DTD/svg10.dtd">
<svg version="1.0" xmlns="http://www.w3.org/2000/svg"
 width="280.000000pt" height="100.000000pt" viewBox="0 0 280.000000 100.000000"
 preserveAspectRatio="xMidYMid meet">
<metadata>
Created by potrace 1.16, written by Peter Selinger 2001-2019
</metadata>
<g transform="translate(0.000000,100.000000) scale(0.100000,-0.100000)"
fill="#000000" stroke="none">
<path d="M1207 922 c-112 -61 -221 -185 -234 -267 -9 -54 13 -42 50 26 51 96
121 154 226 190 172 57 371 -30 451 -196 28 -60 34 -65 82 -65 79 0 84 17 36
111 -44 83 -118 156 -207 202 l-72 37 -132 -1 -132 0 -68 -37z"/>
<path d="M1260 864 c-93 -32 -197 -120 -234 -198 -21 -45 -15 -56 34 -56 36 0
70 20 70 41 0 18 72 88 118 116 43 26 55 28 147 28 93 0 104 -2 148 -29 27
-16 67 -52 88 -80 59 -76 61 -78 70 -69 10 10 0 53 -12 53 -5 0 -9 7 -9 16 0
24 -109 126 -165 154 -41 21 -67 25 -145 27 -52 1 -102 0 -110 -3z"/>
<path d="M621 518 c-56 -70 -64 -98 -28 -98 13 0 28 5 35 12 9 9 12 9 12 0 0
-14 279 -16 296 -1 8 7 14 6 19 -1 10 -15 55 -12 61 5 4 10 20 15 51 15 35 0
49 6 68 26 l25 27 -3 -39 c-2 -37 -1 -39 28 -39 25 0 30 4 29 23 0 19 5 22 33
22 21 0 33 -5 32 -12 -3 -29 2 -38 25 -38 22 0 26 6 32 45 3 25 3 61 0 80 -6
29 -11 35 -31 35 -24 0 -29 -9 -26 -37 1 -8 -11 -13 -32 -13 -28 0 -33 3 -33
23 1 18 -4 22 -29 22 -26 0 -30 -3 -28 -25 2 -22 1 -23 -10 -9 -21 27 -54 39
-105 39 -39 0 -53 -5 -72 -25 -28 -29 -21 -33 65 -38 l60 -3 -68 -2 c-50 -1
-69 -6 -73 -17 -4 -10 -20 -15 -50 -15 l-44 0 0 44 c0 50 -10 61 -45 52 -21
-5 -24 -13 -27 -58 l-3 -51 -40 54 c-22 30 -48 55 -57 57 -10 2 -35 -20 -67
-60z"/>
<path d="M1423 558 c-36 -40 -83 -110 -83 -125 0 -16 42 -17 58 -1 9 9 12 9
12 0 0 -16 142 -16 158 0 9 9 12 9 12 -1 0 -8 10 -11 28 -9 25 3 27 7 30 51 2
31 8 47 17 47 7 0 20 3 29 6 12 5 15 -5 18 -48 l3 -53 72 -3 c63 -2 74 0 85
17 12 19 12 19 36 0 29 -22 130 -27 150 -7 9 9 12 9 12 -1 0 -8 10 -11 28 -9
19 2 28 9 30 26 3 17 10 22 32 22 22 0 29 -5 32 -22 2 -15 11 -24 26 -26 21
-3 22 -1 22 78 0 79 -1 81 -22 78 -15 -2 -24 -11 -26 -25 -3 -18 -10 -23 -32
-23 -22 0 -29 5 -32 23 -3 21 -8 22 -95 25 -91 3 -92 3 -129 -30 -30 -27 -35
-29 -25 -10 6 12 9 27 6 32 -9 14 -313 12 -336 -3 -30 -19 -24 -47 9 -47 26 0
28 -2 24 -35 l-4 -35 -47 62 c-25 35 -53 64 -62 66 -8 1 -24 -8 -36 -20z"/>
<path d="M972 371 c-21 -56 122 -241 225 -290 26 -12 56 -26 65 -32 22 -12
285 -12 292 0 3 5 18 12 33 16 15 3 55 26 89 50 108 77 210 245 159 262 -5 1
-19 -16 -30 -40 -82 -176 -272 -266 -447 -212 -112 33 -186 98 -244 210 -20
38 -23 40 -78 45 -44 4 -60 2 -64 -9z"/>
<path d="M1120 362 c0 -27 56 -107 103 -147 82 -71 110 -80 237 -80 108 0 118
2 167 29 28 16 65 42 82 58 34 33 101 131 101 147 0 7 -22 11 -53 11 -50 0
-53 -2 -72 -36 -24 -45 -86 -101 -139 -125 -57 -26 -185 -26 -242 0 -54 25
-118 83 -138 126 -18 37 -46 47 -46 17z"/>
</g>
</svg>
