<?xml version="1.0" standalone="no"?>
<!DOCTYPE svg PUBLIC "-//W3C//DTD SVG 20010904//EN"
 "http://www.w3.org/TR/2001/REC-SVG-20010904/DTD/svg10.dtd">
<svg version="1.0" xmlns="http://www.w3.org/2000/svg"
 width="280.000000pt" height="100.000000pt" viewBox="0 0 280.000000 100.000000"
 preserveAspectRatio="xMidYMid meet">
<metadata>
Created by potrace 1.16, written by Peter Selinger 2001-2019
</metadata>
<g transform="translate(0.000000,100.000000) scale(0.100000,-0.100000)"
fill="#000000" stroke="none">
<path d="M0 770 l0 -220 50 0 c41 0 50 3 51 18 2 40 -2 189 -7 207 -2 11 9 -9
26 -45 49 -105 56 -115 87 -118 26 -3 32 3 54 45 13 26 27 49 32 51 4 2 7 12
7 22 0 10 5 22 10 25 6 4 10 -32 10 -100 l0 -106 58 3 57 3 3 218 2 217 -64 0
c-62 0 -65 -1 -80 -32 -9 -17 -16 -37 -16 -45 0 -7 -4 -13 -10 -13 -5 0 -10
-9 -10 -20 0 -11 -3 -20 -8 -20 -6 0 -18 -23 -37 -75 -6 -15 -8 -17 -12 -5 -2
8 -25 59 -51 112 l-47 97 -52 1 -53 0 0 -220z"/>
<path d="M480 770 l0 -220 55 0 55 0 0 220 0 220 -55 0 -55 0 0 -220z"/>
<path d="M612 948 l3 -43 68 -3 67 -3 0 -174 c0 -149 2 -175 15 -175 10 0 -2
-23 -34 -67 -27 -38 -67 -94 -88 -125 -35 -52 -41 -57 -76 -58 -31 0 -45 -8
-85 -48 -26 -26 -64 -69 -84 -96 -21 -27 -38 -46 -38 -42 0 3 16 27 36 53 43
56 57 89 49 114 -5 16 -16 19 -63 18 -65 -2 -69 -5 -154 -131 -29 -43 -56 -78
-61 -78 -4 0 10 26 31 58 45 66 54 95 42 128 -8 19 -17 24 -46 24 -49 0 -90
-32 -148 -115 -40 -57 -46 -73 -46 -115 l0 -50 103 0 102 0 19 35 c11 19 23
35 27 35 4 0 10 9 14 19 6 21 95 121 95 108 0 -4 -9 -18 -21 -30 -44 -47 -79
-107 -79 -136 0 -30 2 -31 43 -31 24 0 48 5 55 12 9 9 12 9 12 0 0 -8 27 -12
93 -12 l92 0 25 37 c14 21 40 52 58 71 32 33 41 65 22 77 -16 10 -37 -7 -80
-64 -22 -30 -40 -50 -40 -44 0 7 6 18 13 25 7 7 28 36 47 63 19 28 37 52 42
53 4 2 8 9 8 15 0 7 14 28 30 47 16 19 30 39 30 43 0 4 9 17 20 29 11 12 20
28 20 35 0 7 4 13 8 13 4 0 16 15 27 33 10 17 25 37 33 43 9 7 13 20 9 33 -3
14 -1 21 9 21 17 0 16 -14 14 188 l-1 162 65 0 66 0 0 45 0 45 -186 0 -185 0
3 -42z"/>
<path d="M1039 951 c-61 -61 -79 -102 -79 -181 0 -38 5 -72 10 -75 6 -3 10
-15 10 -26 0 -10 4 -19 8 -19 5 0 15 -11 22 -25 7 -13 30 -36 51 -50 34 -22
49 -25 122 -25 81 0 84 1 125 36 51 43 55 74 13 103 -36 26 -59 27 -68 4 -11
-29 -36 -42 -80 -43 -36 0 -46 5 -67 33 -21 28 -26 45 -26 93 1 64 14 88 62
113 23 12 32 12 60 0 18 -7 40 -21 49 -31 20 -22 27 -22 67 -2 43 21 41 46 -8
94 l-41 40 -97 -1 -97 -1 -36 -37z"/>
<path d="M1372 773 l3 -218 58 -3 57 -3 0 91 0 91 76 -3 76 -3 2 -85 1 -85 55
0 55 0 3 218 2 217 -61 0 -61 0 4 -80 3 -80 -77 0 -78 0 0 80 0 80 -60 0 -60
0 2 -217z"/>
<path d="M1810 978 c-1 -12 -1 -365 0 -411 0 -16 12 -17 158 -15 l157 3 0 45
0 45 -102 3 -103 3 0 39 0 40 86 0 85 0 -3 48 -3 47 -82 3 -83 3 0 34 0 35 99
0 99 0 4 28 c9 63 11 62 -158 62 -116 0 -154 -3 -154 -12z"/>
<path d="M2150 770 l0 -220 158 0 c110 0 162 4 170 12 9 9 12 9 12 0 0 -9 41
-12 155 -12 l155 0 0 50 0 50 -100 0 -100 0 0 170 0 170 -60 0 -60 0 0 -182
c0 -101 -4 -178 -8 -171 -5 8 -43 13 -106 15 l-98 3 1 168 2 167 -61 0 -60 0
0 -220z"/>
<path d="M900 210 l0 -190 129 0 129 0 26 31 c35 42 36 100 1 135 l-25 25 20
26 c23 30 26 70 6 107 -26 50 -42 55 -168 56 l-118 0 0 -190z"/>
<path d="M1230 210 l0 -190 50 0 50 0 0 55 c0 48 3 55 19 55 19 0 61 -47 61
-69 0 -6 5 -11 10 -11 6 0 10 -7 10 -15 0 -12 13 -15 55 -15 63 0 67 8 30 62
-14 20 -25 41 -25 47 0 5 -6 11 -12 13 -9 3 -2 18 20 42 37 42 43 92 16 144
-29 60 -60 72 -178 72 l-106 0 0 -190z"/>
<path d="M1510 384 c0 -9 8 -28 18 -42 10 -15 36 -63 58 -107 21 -44 42 -81
46 -83 5 -2 8 -33 8 -68 l0 -64 50 0 50 0 0 70 c0 53 5 78 22 107 11 21 34 63
50 93 16 30 34 59 39 64 5 6 9 18 9 29 0 16 -7 18 -52 15 -45 -3 -54 -7 -69
-33 -10 -16 -18 -38 -18 -47 -1 -10 -5 -18 -11 -18 -5 0 -10 -9 -10 -19 0 -40
-18 -29 -49 31 -17 33 -31 67 -31 74 0 10 -15 14 -55 14 -44 0 -55 -3 -55 -16z"/>
<path d="M1910 363 c-8 -21 -15 -40 -15 -43 -1 -3 -5 -13 -9 -22 -4 -9 -9 -22
-10 -30 -2 -7 -6 -22 -10 -33 -5 -11 -12 -33 -18 -50 -12 -37 -27 -74 -39 -97
-5 -10 -9 -29 -9 -43 0 -23 3 -25 50 -25 37 0 50 4 50 15 0 8 5 26 12 40 10
22 17 25 59 25 48 0 48 0 59 -40 l11 -40 104 0 104 0 3 97 3 97 25 -36 c114
-161 111 -158 160 -156 29 2 45 8 44 16 -1 6 -2 91 -2 188 l-2 175 -47 -3 -48
-3 -3 -95 -3 -94 -22 26 c-12 14 -44 58 -72 97 -48 68 -51 70 -92 71 l-43 0
-1 -182 c0 -184 -1 -186 -30 -110 -5 12 -13 32 -18 45 -5 12 -15 40 -22 62 -7
22 -17 44 -21 50 -4 5 -8 17 -8 27 0 10 -4 26 -9 36 -5 9 -14 29 -22 45 -11
23 -18 27 -54 27 -38 0 -42 -2 -55 -37z"/>
<path d="M2500 356 c0 -49 8 -56 71 -56 l39 0 0 -140 0 -140 50 0 50 0 0 140
0 140 45 0 45 0 0 50 0 50 -150 0 -150 0 0 -44z"/>
</g>
</svg>
