<?xml version="1.0" standalone="no"?>
<!DOCTYPE svg PUBLIC "-//W3C//DTD SVG 20010904//EN"
 "http://www.w3.org/TR/2001/REC-SVG-20010904/DTD/svg10.dtd">
<svg version="1.0" xmlns="http://www.w3.org/2000/svg"
 width="280.000000pt" height="100.000000pt" viewBox="0 0 280.000000 100.000000"
 preserveAspectRatio="xMidYMid meet">
<metadata>
Created by potrace 1.16, written by Peter Selinger 2001-2019
</metadata>
<g transform="translate(0.000000,100.000000) scale(0.100000,-0.100000)"
fill="#000000" stroke="none">
<path d="M1215 970 c-64 -36 -138 -105 -161 -150 -11 -19 -22 -37 -26 -40 -11
-8 -30 -89 -35 -149 -5 -53 22 -201 36 -201 3 0 12 -12 18 -27 17 -39 90 -115
138 -145 125 -77 295 -77 420 0 48 30 121 106 138 145 6 15 15 27 19 27 14 0
31 98 32 175 0 75 -16 163 -32 175 -4 3 -16 21 -26 40 -28 50 -105 121 -167
153 -51 26 -61 27 -179 26 -118 0 -128 -2 -175 -29z m235 -178 c37 -18 46 -38
36 -78 -8 -31 -22 -24 -29 16 -11 54 -81 63 -113 15 -27 -42 -10 -77 78 -160
44 -41 84 -75 89 -75 15 0 10 77 -6 90 -26 21 -17 30 30 30 l45 0 -6 -57 c-3
-32 -11 -68 -17 -81 -10 -20 -7 -26 19 -47 16 -14 37 -27 47 -30 9 -4 17 -11
17 -17 0 -7 -21 -8 -62 -4 -35 4 -74 6 -88 5 -14 0 -68 -2 -122 -3 -94 -1 -97
0 -134 30 -22 17 -42 44 -46 62 -11 42 12 98 47 114 22 10 25 16 20 37 -18 71
-17 88 7 115 24 28 86 55 128 55 14 0 41 -8 60 -17z"/>
<path d="M1274 555 c-9 -35 15 -93 47 -118 31 -22 107 -33 129 -17 13 9 9 15
-20 42 -19 17 -57 50 -84 74 -27 24 -53 44 -57 44 -5 0 -11 -11 -15 -25z"/>
<path d="M670 880 c0 -11 -4 -20 -10 -20 -5 0 -10 -7 -10 -16 0 -15 -7 -33
-55 -139 -13 -27 -30 -67 -39 -87 -9 -21 -23 -53 -31 -72 -8 -19 -15 -39 -15
-45 0 -6 -4 -11 -10 -11 -5 0 -10 -7 -10 -17 0 -9 -12 -40 -26 -69 -20 -42
-31 -53 -52 -56 -19 -2 -28 -10 -30 -25 -3 -22 -1 -23 92 -23 87 0 96 2 96 18
0 11 -9 23 -20 28 -18 8 -18 12 -6 35 7 14 16 37 20 52 6 27 8 27 91 27 83 0
85 0 91 -27 4 -15 13 -38 20 -52 12 -24 12 -27 -11 -39 -14 -7 -25 -19 -25
-27 0 -13 24 -15 140 -15 134 0 140 1 140 20 0 15 -9 22 -31 27 -25 5 -35 15
-56 62 -13 31 -36 81 -50 111 -13 30 -28 64 -33 75 -5 11 -25 55 -45 99 -32
69 -55 121 -60 136 -1 3 -4 12 -7 20 -4 8 -9 23 -12 33 -8 24 -46 22 -46 -3z"/>
<path d="M1810 866 c0 -8 14 -19 30 -25 l30 -10 0 -238 0 -239 -30 -11 c-16
-6 -30 -18 -30 -27 0 -14 18 -16 135 -16 104 0 135 3 135 13 0 19 -21 37 -42
37 -16 0 -18 11 -18 110 0 61 4 110 8 110 15 0 37 -33 81 -123 61 -123 85
-140 208 -145 l95 -4 -4 23 c-2 16 -11 25 -25 27 -28 4 -66 47 -136 155 -20
31 -43 57 -50 57 -6 0 2 8 20 16 50 25 83 83 83 147 0 44 -5 59 -30 89 -52 63
-71 68 -277 68 -150 0 -183 -3 -183 -14z m304 -67 c23 -18 26 -28 26 -78 0
-73 -29 -111 -85 -111 l-35 0 0 105 0 105 34 0 c19 0 45 -9 60 -21z"/>
<path d="M506 151 c-25 -27 -19 -50 22 -88 l37 -35 -34 6 c-18 3 -37 6 -42 6
-5 0 -9 7 -9 15 0 8 -4 15 -8 15 -5 0 -12 19 -18 43 -7 31 -14 43 -30 45 -16
2 -26 -10 -52 -68 -18 -39 -32 -76 -32 -81 0 -5 12 -9 26 -9 18 0 28 6 31 21
4 12 11 18 20 15 8 -3 17 -6 19 -6 2 0 4 -7 4 -15 0 -13 13 -15 78 -13 72 3
77 4 80 27 3 16 -7 34 -29 57 l-33 34 53 0 53 0 -4 -60 -4 -60 29 0 29 0 -4
60 c-4 57 -3 60 19 60 21 0 23 -4 23 -60 0 -57 1 -60 25 -60 17 0 25 6 25 18
1 16 1 16 14 0 10 -13 27 -18 67 -18 l54 0 0 85 1 85 -28 0 c-27 0 -27 -1 -30
-72 -3 -69 -4 -71 -21 -54 -16 17 -16 20 -2 35 21 24 19 50 -7 72 -20 16 -40
18 -165 18 -122 0 -143 -3 -157 -18z"/>
<path d="M935 85 l0 -86 69 3 c67 3 70 4 88 37 18 31 18 36 3 67 -22 47 -51
64 -110 64 l-50 0 0 -85z"/>
<path d="M1665 85 l0 -85 28 0 c21 0 27 5 28 23 l0 22 11 -22 c12 -25 63 -32
71 -10 4 9 6 9 6 0 1 -9 21 -13 65 -13 65 0 79 7 89 45 3 13 5 9 6 -12 1 -32
2 -33 49 -33 26 0 53 5 60 12 9 9 12 9 12 0 0 -8 26 -12 86 -12 84 0 85 0 79
23 l-6 22 20 -22 c20 -24 71 -32 71 -12 0 6 -11 20 -25 31 -22 17 -23 21 -10
34 8 9 15 22 15 30 0 8 9 14 20 14 18 0 20 -7 20 -60 0 -59 0 -60 28 -60 l28
0 -4 60 c-4 56 -3 60 17 60 16 0 21 6 21 25 0 24 -2 25 -70 25 -42 0 -70 -4
-70 -10 0 -7 -6 -7 -19 0 -28 14 -91 13 -91 -2 0 -10 -2 -10 -9 0 -5 9 -25 12
-57 10 l-49 -3 3 -49 c3 -37 1 -47 -10 -44 -8 3 -12 16 -10 35 4 38 -26 63
-76 63 -31 0 -33 -2 -29 -32 2 -18 2 -26 0 -17 -6 22 -56 49 -90 49 -32 -1
-63 -24 -80 -60 l-12 -25 0 27 c-1 34 -34 58 -81 58 l-35 0 0 -85z"/>
<path d="M1281 128 c1 -12 1 -39 0 -58 l-2 -35 -24 53 c-18 37 -30 52 -45 52
-11 0 -20 -7 -20 -15 0 -8 -11 -34 -25 -59 -14 -25 -25 -50 -25 -55 0 -6 11
-11 25 -11 14 0 25 5 25 10 0 6 9 10 20 10 11 0 20 -4 20 -10 0 -5 25 -10 55
-10 l55 0 -6 30 c-4 17 -3 30 0 30 4 0 19 -14 33 -30 15 -18 34 -30 49 -30 23
0 24 3 24 65 0 37 4 65 10 65 6 0 10 -28 10 -65 l0 -65 61 0 c70 0 88 14 89
66 0 50 -39 79 -106 78 -128 -3 -117 1 -111 -45 l5 -40 -37 39 c-21 22 -48 43
-60 47 -19 6 -22 3 -20 -17z"/>
</g>
</svg>
