<?xml version="1.0" standalone="no"?>
<!DOCTYPE svg PUBLIC "-//W3C//DTD SVG 20010904//EN"
 "http://www.w3.org/TR/2001/REC-SVG-20010904/DTD/svg10.dtd">
<svg version="1.0" xmlns="http://www.w3.org/2000/svg"
 width="280.000000pt" height="100.000000pt" viewBox="0 0 280.000000 100.000000"
 preserveAspectRatio="xMidYMid meet">
<metadata>
Created by potrace 1.16, written by Peter Selinger 2001-2019
</metadata>
<g transform="translate(0.000000,100.000000) scale(0.100000,-0.100000)"
fill="#000000" stroke="none">
<path d="M1620 505 l0 -415 590 0 590 0 0 415 0 415 -590 0 -590 0 0 -415z
m921 289 c15 -7 41 -31 56 -51 l28 -36 0 -186 c0 -168 -2 -189 -20 -221 -62
-106 -267 -106 -330 1 -18 31 -20 52 -20 220 l0 186 28 36 c30 40 55 56 102
68 39 10 121 2 156 -17z m-405 -159 l2 -170 28 -5 c27 -5 29 -8 29 -55 0 -47
-1 -50 -30 -55 -29 -5 -30 -7 -30 -60 l0 -55 -57 -3 -58 -3 0 60 0 60 -112 3
-113 3 -3 32 c-4 38 4 54 120 242 117 189 111 183 172 179 l51 -3 1 -170z"/>
<path d="M2390 690 c-18 -18 -20 -33 -20 -173 0 -148 1 -154 23 -175 30 -28
68 -28 95 1 21 22 22 33 22 175 0 139 -2 154 -20 172 -11 11 -33 20 -50 20
-17 0 -39 -9 -50 -20z"/>
<path d="M976 826 c-51 -31 -65 -59 -66 -129 0 -53 -2 -58 -19 -52 -33 10 -52
-21 -49 -79 3 -49 4 -51 35 -54 l32 -3 3 -147 3 -147 58 -3 c88 -5 89 -3 85
159 l-3 138 40 3 40 3 3 61 c3 59 2 62 -23 68 -15 4 -36 4 -47 0 -17 -5 -20
-3 -15 11 4 9 7 25 7 36 0 16 7 19 40 19 l40 0 0 64 c0 72 -4 76 -78 76 -32 0
-60 -8 -86 -24z"/>
<path d="M95 804 c-43 -29 -74 -63 -75 -81 0 -7 -4 -13 -10 -13 -6 0 -10 -67
-10 -180 0 -184 3 -198 43 -244 9 -11 17 -23 17 -26 0 -3 18 -16 41 -28 57
-31 182 -31 236 -1 72 40 96 82 97 169 l1 45 -70 0 c-67 0 -70 -1 -73 -25 -7
-61 -42 -88 -97 -74 -41 10 -55 54 -55 174 0 120 14 164 55 174 58 15 95 -19
95 -84 l0 -30 76 0 77 0 -7 73 c-4 39 -11 74 -16 75 -6 2 -10 8 -10 13 0 17
-35 51 -72 70 -28 14 -58 19 -121 19 -74 0 -89 -3 -122 -26z"/>
<path d="M545 625 c-46 -26 -77 -76 -73 -114 3 -23 9 -27 48 -32 42 -5 43 -6
17 -13 -46 -14 -77 -60 -77 -117 0 -95 43 -139 136 -139 40 0 64 6 84 20 28
20 28 20 33 0 4 -17 14 -20 60 -20 31 0 58 4 61 9 3 5 3 84 -1 176 -6 157 -8
169 -30 196 -37 43 -78 59 -152 58 -50 0 -76 -6 -106 -24z"/>
<path d="M1256 627 c-22 -12 -52 -40 -68 -61 -26 -37 -28 -45 -28 -135 1 -80
4 -102 23 -135 33 -57 92 -86 176 -86 111 0 181 50 181 129 0 29 -1 30 -57 34
l-58 3 58 2 57 2 0 74 c0 69 -3 78 -32 117 -46 60 -81 78 -153 77 -43 0 -71
-6 -99 -21z"/>
</g>
</svg>
