<?xml version="1.0" standalone="no"?>
<!DOCTYPE svg PUBLIC "-//W3C//DTD SVG 20010904//EN"
 "http://www.w3.org/TR/2001/REC-SVG-20010904/DTD/svg10.dtd">
<svg version="1.0" xmlns="http://www.w3.org/2000/svg"
 width="280.000000pt" height="100.000000pt" viewBox="0 0 280.000000 100.000000"
 preserveAspectRatio="xMidYMid meet">
<metadata>
Created by potrace 1.16, written by Peter Selinger 2001-2019
</metadata>
<g transform="translate(0.000000,100.000000) scale(0.100000,-0.100000)"
fill="#000000" stroke="none">
<path d="M0 591 c0 -318 2 -360 16 -365 9 -3 114 -6 234 -6 l219 0 50 -76 c28
-42 51 -80 51 -85 0 -5 15 -9 33 -9 l32 0 -3 352 c-2 227 -7 357 -14 365 -8
10 -67 13 -238 13 l-228 0 -46 72 c-25 39 -46 77 -46 85 0 8 -12 13 -30 13
l-30 0 0 -359z m201 46 l16 -32 114 -3 114 -3 0 -133 c0 -97 -3 -129 -11 -121
-6 6 -15 21 -18 33 -7 21 -12 22 -127 22 l-119 0 0 135 c0 74 3 135 8 135 4 0
14 -15 23 -33z"/>
<path d="M780 786 c0 -179 1 -182 60 -188 l35 -3 -29 -15 c-105 -54 -130 -213
-48 -297 52 -54 85 -68 158 -67 56 0 69 4 103 32 34 28 41 30 52 16 26 -31 74
-48 139 -48 73 0 98 11 153 62 l37 36 0 -31 c0 -55 8 -63 61 -63 63 0 69 12
69 136 0 93 -1 98 -33 143 -18 25 -36 54 -40 64 -4 11 -17 17 -38 17 -30 0
-31 -1 -24 -32 8 -37 15 -82 8 -58 -11 42 -86 102 -143 114 l-25 5 3 131 c2
75 0 130 -6 130 -5 0 -17 18 -27 40 -16 35 -22 40 -52 40 l-33 0 0 -164 c0
-107 4 -167 11 -171 6 -4 -5 -18 -28 -33 -21 -14 -43 -33 -50 -41 -11 -14 -12
-12 -13 11 0 20 -6 27 -22 30 -12 2 -23 9 -26 15 -3 10 8 11 42 7 74 -11 76
-7 76 182 l0 164 -60 0 -60 0 0 -140 0 -141 -25 26 c-19 18 -36 25 -65 25
l-40 0 0 115 0 115 -60 0 -60 0 0 -164z m290 -284 c0 -4 -5 -13 -11 -19 -7 -7
-10 -38 -7 -83 2 -40 2 -67 0 -61 -5 14 -59 15 -67 1 -10 -16 -81 -12 -95 5
-7 9 -15 37 -18 63 -7 75 34 99 135 77 25 -6 34 -4 39 9 6 16 24 22 24 8z
m224 -13 c45 -21 55 -99 18 -141 -10 -13 -30 -18 -64 -18 -44 0 -50 3 -68 33
-24 39 -25 60 -3 93 27 41 71 53 117 33z"/>
<path d="M1320 855 c0 -93 1 -98 35 -151 19 -30 35 -59 35 -64 0 -14 50 -24
62 -12 7 7 7 20 -1 43 -6 17 -11 88 -11 155 l0 124 -60 0 -60 0 0 -95z"/>
<path d="M1450 866 c0 -137 13 -185 61 -228 34 -31 49 -38 82 -38 32 0 38 -3
29 -12 -15 -15 -17 -244 -2 -253 6 -4 19 -24 30 -46 25 -47 67 -79 80 -59 6
10 15 11 37 2 83 -31 149 -24 199 23 31 29 34 38 34 88 0 49 -3 58 -29 79 -26
22 -51 35 -104 52 -36 12 -6 27 39 20 39 -5 49 -3 70 17 45 43 30 71 -51 93
-18 5 -20 13 -17 76 2 39 8 68 13 64 5 -3 9 -18 9 -34 0 -16 5 -32 10 -35 6
-3 10 -14 10 -24 0 -21 30 -51 51 -51 11 0 14 -27 14 -151 l0 -151 43 -38 c74
-66 167 -65 233 1 46 46 51 69 47 219 l-3 115 -55 0 -55 0 -3 -127 c-3 -125
-3 -128 -27 -134 -56 -14 -60 -8 -62 111 -4 156 -4 155 -61 155 -46 0 -46 1
-27 18 20 17 35 51 52 122 7 30 9 23 13 -50 l5 -85 45 -3 c67 -5 70 4 70 190
l0 158 -85 0 -85 0 -16 -37 c-9 -21 -18 -55 -21 -76 -7 -46 -23 -59 -23 -18 0
16 -4 33 -10 36 -5 3 -10 15 -10 25 0 11 -5 31 -12 45 -11 24 -15 25 -95 25
l-83 0 0 -159 c0 -130 3 -162 15 -175 14 -14 13 -17 -14 -30 -16 -9 -32 -25
-36 -36 -10 -30 -23 -24 -27 12 -2 25 -9 34 -28 39 l-25 6 25 11 c69 31 80 59
80 213 l0 119 -61 0 -60 0 2 -111 c2 -87 -1 -113 -12 -120 -22 -13 -46 -11
-64 8 -14 13 -16 34 -13 120 l3 103 -62 0 -63 0 0 -84z"/>
<path d="M2355 578 c-3 -13 -4 -97 -3 -188 l3 -165 123 -3 c131 -3 134 -2 112
50 -19 47 -38 61 -79 61 l-40 0 -3 131 -3 131 -52 3 c-48 3 -53 1 -58 -20z"/>
<path d="M2515 579 c-4 -11 -4 -36 0 -55 6 -33 8 -34 50 -34 l44 0 3 -132 3
-133 53 -3 52 -3 0 135 0 136 40 0 40 0 0 55 0 55 -139 0 c-133 0 -140 -1
-146 -21z"/>
<path d="M807 140 c-22 -17 -27 -29 -25 -54 l3 -31 463 -3 464 -2 -7 30 c-9
39 9 39 27 0 l13 -30 486 0 486 0 -1 52 -1 52 -85 -2 c-47 -1 -89 -2 -95 -2
-5 0 -80 0 -165 1 -205 2 -273 -1 -282 -15 -6 -8 -11 -7 -17 3 -7 10 -60 14
-262 15 -141 1 -260 -2 -266 -7 -8 -6 -18 -6 -25 -1 -7 5 -92 8 -188 7 -324
-3 -445 -3 -470 3 -17 4 -34 -2 -53 -16z"/>
</g>
</svg>
