<?xml version="1.0" standalone="no"?>
<!DOCTYPE svg PUBLIC "-//W3C//DTD SVG 20010904//EN"
 "http://www.w3.org/TR/2001/REC-SVG-20010904/DTD/svg10.dtd">
<svg version="1.0" xmlns="http://www.w3.org/2000/svg"
 width="280.000000pt" height="100.000000pt" viewBox="0 0 280.000000 100.000000"
 preserveAspectRatio="xMidYMid meet">
<metadata>
Created by potrace 1.16, written by Peter Selinger 2001-2019
</metadata>
<g transform="translate(0.000000,100.000000) scale(0.100000,-0.100000)"
fill="#000000" stroke="none">
<path d="M121 723 c-52 -27 -76 -66 -76 -121 0 -66 24 -96 111 -137 86 -41
104 -65 74 -95 -24 -24 -76 -26 -133 -6 -42 15 -44 14 -53 -41 -6 -39 -5 -41
26 -52 53 -18 170 -14 210 8 49 25 80 75 80 125 0 65 -28 99 -113 140 -93 44
-107 59 -81 87 16 18 27 20 69 16 27 -2 58 -8 67 -12 13 -5 19 2 28 35 15 58
6 64 -93 68 -64 2 -90 -1 -116 -15z"/>
<path d="M1868 688 c-47 -10 -48 -11 -48 -49 0 -32 -3 -39 -20 -39 -17 0 -20
-7 -20 -40 0 -33 3 -40 20 -40 18 0 20 -7 20 -72 1 -153 26 -190 125 -186 l60
3 3 42 c3 42 2 43 -27 43 -40 0 -51 23 -51 104 l0 66 40 0 40 0 0 40 0 40 -40
0 -40 0 0 50 c0 28 -3 49 -7 49 -5 -1 -29 -6 -55 -11z"/>
<path d="M936 584 c-25 -26 -26 -26 -26 -5 0 19 -6 21 -51 21 -48 0 -51 -1
-45 -22 3 -13 6 -87 6 -165 l0 -143 55 0 55 0 0 100 c0 113 14 140 70 140 29
0 30 1 30 50 l0 50 -34 0 c-23 0 -42 -8 -60 -26z"/>
<path d="M1483 599 c-37 -11 -38 -13 -22 -57 8 -25 14 -30 27 -23 31 15 82 21
107 11 27 -10 34 -30 10 -30 -49 0 -118 -25 -145 -52 -25 -25 -30 -37 -30 -80
0 -42 5 -54 30 -80 29 -28 34 -29 88 -24 31 3 86 6 122 5 l66 0 -4 128 c-5
141 -15 174 -62 198 -32 17 -135 19 -187 4z"/>
<path d="M2093 599 c-37 -11 -38 -13 -22 -57 8 -25 14 -30 27 -23 31 15 82 21
107 11 27 -10 34 -30 10 -30 -49 0 -118 -25 -145 -52 -25 -25 -30 -37 -30 -80
0 -42 5 -54 30 -80 29 -28 34 -29 88 -24 31 3 86 6 122 5 l66 0 -4 128 c-5
141 -15 174 -62 198 -32 17 -135 19 -187 4z"/>
<path d="M2545 593 c-20 -11 -30 -12 -33 -4 -2 6 -25 11 -54 11 -47 0 -50 -1
-44 -22 3 -13 6 -87 6 -165 l0 -143 55 0 55 0 0 108 c0 93 3 111 18 125 25 23
59 21 72 -2 5 -11 10 -67 10 -125 l0 -106 56 0 56 0 -4 141 -3 141 -33 29
c-26 24 -41 29 -80 29 -26 -1 -60 -8 -77 -17z"/>
<path d="M422 459 l3 -141 33 -29 c41 -37 114 -41 156 -8 21 17 26 18 26 5 0
-12 11 -16 50 -16 l50 0 0 165 0 165 -55 0 -55 0 0 -103 c0 -114 -12 -147 -55
-147 -36 0 -45 28 -45 144 l0 106 -56 0 -56 0 4 -141z"/>
<path d="M1062 587 c2 -7 28 -82 58 -166 l55 -152 59 3 59 3 58 155 c33 85 59
158 59 163 0 4 -26 7 -58 7 l-58 0 -14 -52 c-7 -29 -20 -75 -28 -103 l-15 -50
-13 45 c-7 25 -20 71 -29 103 l-16 57 -60 0 c-45 0 -60 -3 -57 -13z"/>
</g>
</svg>
