<svg width="21" height="16" viewBox="0 0 21 16" fill="none" xmlns="http://www.w3.org/2000/svg">
<path d="M16.8436 13.0959V15.4192H1.35475V13.0959C1.35475 12.6699 1.70325 12.3214 2.1292 12.3214H16.0692C16.4951 12.3214 16.8436 12.6699 16.8436 13.0959Z" fill="url(#paint0_linear_13_13)"/>
<path d="M5.22697 6.90036H3.67809V12.3215H5.22697V6.90036Z" fill="url(#paint1_linear_13_13)"/>
<path d="M8.32474 6.90036H6.77585V12.3215H8.32474V6.90036Z" fill="url(#paint2_linear_13_13)"/>
<path d="M11.4225 6.90036H9.87361V12.3215H11.4225V6.90036Z" fill="url(#paint3_linear_13_13)"/>
<path d="M14.5203 6.90036H12.9714V12.3215H14.5203V6.90036Z" fill="url(#paint4_linear_13_13)"/>
<path d="M17.6181 16H0.580284C0.262762 16 -0.000549316 15.7367 -0.000549316 15.4192C-0.000549316 15.1016 0.262762 14.8383 0.580284 14.8383H17.6181C17.9356 14.8383 18.1989 15.1016 18.1989 15.4192C18.1989 15.7367 17.9356 16 17.6181 16Z" fill="url(#paint5_linear_13_13)"/>
<path d="M16.3557 2.83447L9.38574 0.0464667C9.23085 -0.0154889 8.96754 -0.0154889 8.81265 0.0464667L1.84265 2.83447C1.5716 2.94289 1.35475 3.26041 1.35475 3.5547V6.12586C1.35475 6.5518 1.70325 6.9003 2.1292 6.9003H16.0692C16.4951 6.9003 16.8436 6.5518 16.8436 6.12586V3.5547C16.8436 3.26041 16.6268 2.94289 16.3557 2.83447ZM9.09919 4.96419C8.45641 4.96419 7.93753 4.44531 7.93753 3.80252C7.93753 3.15973 8.45641 2.64086 9.09919 2.64086C9.74198 2.64086 10.2609 3.15973 10.2609 3.80252C10.2609 4.44531 9.74198 4.96419 9.09919 4.96419Z" fill="url(#paint6_linear_13_13)"/>
<g clip-path="url(#clip0_13_13)">
<rect x="12.9995" y="8" width="8" height="8" rx="4" fill="#2D3791"/>
<path d="M19.3328 10.6667L17.9994 12H18.9994C18.9994 13.1033 18.1028 14 16.9994 14C16.6628 14 16.3428 13.9167 16.0661 13.7667L15.5794 14.2533C15.9894 14.5133 16.4761 14.6667 16.9994 14.6667C18.4728 14.6667 19.6661 13.4733 19.6661 12H20.6661L19.3328 10.6667ZM14.9994 12C14.9994 10.8967 15.8961 10 16.9994 10C17.3361 10 17.6561 10.0833 17.9328 10.2333L18.4194 9.74668C18.0094 9.48668 17.5228 9.33334 16.9994 9.33334C15.5261 9.33334 14.3328 10.5267 14.3328 12H13.3328L14.6661 13.3333L15.9994 12H14.9994Z" fill="url(#paint7_linear_13_13)"/>
</g>
<defs>
<linearGradient id="paint0_linear_13_13" x1="0.673898" y1="12.5151" x2="20.2484" y2="12.5151" gradientUnits="userSpaceOnUse">
<stop stop-color="#0387A4"/>
<stop offset="1" stop-color="#43F4FF"/>
</linearGradient>
<linearGradient id="paint1_linear_13_13" x1="3.61" y1="7.23918" x2="5.56745" y2="7.23918" gradientUnits="userSpaceOnUse">
<stop stop-color="#0387A4"/>
<stop offset="1" stop-color="#43F4FF"/>
</linearGradient>
<linearGradient id="paint2_linear_13_13" x1="6.70776" y1="7.23918" x2="8.66521" y2="7.23918" gradientUnits="userSpaceOnUse">
<stop stop-color="#0387A4"/>
<stop offset="1" stop-color="#43F4FF"/>
</linearGradient>
<linearGradient id="paint3_linear_13_13" x1="9.80553" y1="7.23918" x2="11.763" y2="7.23918" gradientUnits="userSpaceOnUse">
<stop stop-color="#0387A4"/>
<stop offset="1" stop-color="#43F4FF"/>
</linearGradient>
<linearGradient id="paint4_linear_13_13" x1="12.9033" y1="7.23918" x2="14.8608" y2="7.23918" gradientUnits="userSpaceOnUse">
<stop stop-color="#0387A4"/>
<stop offset="1" stop-color="#43F4FF"/>
</linearGradient>
<linearGradient id="paint5_linear_13_13" x1="-0.800552" y1="14.9109" x2="22.1994" y2="14.9109" gradientUnits="userSpaceOnUse">
<stop stop-color="#0387A4"/>
<stop offset="1" stop-color="#43F4FF"/>
</linearGradient>
<linearGradient id="paint6_linear_13_13" x1="0.673898" y1="0.431269" x2="20.2484" y2="0.431268" gradientUnits="userSpaceOnUse">
<stop stop-color="#0387A4"/>
<stop offset="1" stop-color="#43F4FF"/>
</linearGradient>
<linearGradient id="paint7_linear_13_13" x1="9.99944" y1="9" x2="20.9994" y2="9" gradientUnits="userSpaceOnUse">
<stop stop-color="#0387A4"/>
<stop offset="1" stop-color="#43F4FF"/>
</linearGradient>
<clipPath id="clip0_13_13">
<rect x="12.9995" y="8" width="8" height="8" rx="4" fill="white"/>
</clipPath>
</defs>
</svg>
