<svg width="15" height="16" viewBox="0 0 15 16" fill="none" xmlns="http://www.w3.org/2000/svg">
<path d="M10.6158 6.80765C12.6305 5.11349 16.7749 -0.941542 10.2992 0.125148C7.47874 0.564367 3.98228 3.13129 3.14764 6.33137C2.7122 5.47566 2.23171 4.64811 1.7086 3.85287C0.931518 2.75481 -0.608666 3.82719 0.254752 4.95662C2.70113 8.18807 4.39918 12.0783 4.39918 16C4.60066 14.0548 4.93205 11.4452 4.18375 9.12358C4.45757 9.32905 4.47741 9.34446 4.66801 9.59502C5.99193 11.7912 8.02556 13.6156 10.2992 14.4941C12.3715 15.3412 15.1344 14.8392 14.012 11.4509C13.4076 9.59986 11.9973 7.96846 10.6158 6.80765Z" fill="url(#paint0_linear_7_46)"/>
<defs>
<linearGradient id="paint0_linear_7_46" x1="1.69806e-07" y1="3" x2="14" y2="16" gradientUnits="userSpaceOnUse">
<stop offset="0.167808" stop-color="#F5A222"/>
<stop offset="1" stop-color="#F6731D"/>
</linearGradient>
</defs>
</svg>
