<svg width="16" height="16" viewBox="0 0 16 16" fill="none" xmlns="http://www.w3.org/2000/svg">
<path d="M10.376 8.60004H9.75999H6.02399V10.864H7.07199H10.376C11.136 10.864 11.76 10.352 11.76 9.72804C11.76 9.10404 11.136 8.60004 10.376 8.60004Z" fill="url(#paint0_linear_7_77)"/>
<path d="M8 0C3.584 0 0 3.584 0 8C0 12.416 3.584 16 8 16C12.416 16 16 12.416 16 8C16 3.584 12.416 0 8 0ZM10.376 12.064H9.056V13.2C9.056 13.528 8.784 13.8 8.456 13.8C8.128 13.8 7.856 13.528 7.856 13.2V12.064H7.072H6.888V13.2C6.888 13.528 6.616 13.8 6.288 13.8C5.96 13.8 5.688 13.528 5.688 13.2V12.064H5.424H4.04C3.712 12.064 3.44 11.792 3.44 11.464C3.44 11.136 3.712 10.864 4.04 10.864H4.824V8V5.136H4.04C3.712 5.136 3.44 4.864 3.44 4.536C3.44 4.208 3.712 3.936 4.04 3.936H5.424H5.688V2.8C5.688 2.472 5.96 2.2 6.288 2.2C6.616 2.2 6.888 2.472 6.888 2.8V3.936H7.072H7.856V2.8C7.856 2.472 8.128 2.2 8.456 2.2C8.784 2.2 9.056 2.472 9.056 2.8V3.936H9.76C11 3.936 12.096 5.024 12.096 6.272C12.096 6.808 11.904 7.296 11.6 7.696C12.408 8.088 12.96 8.856 12.96 9.744C12.96 11.016 11.8 12.064 10.376 12.064Z" fill="url(#paint1_linear_7_77)"/>
<path d="M10.896 6.26405C10.896 5.73605 10.4 5.12805 9.75999 5.12805H7.07199H6.02399V7.39205H9.75999C10.384 7.40005 10.896 6.88805 10.896 6.26405Z" fill="url(#paint2_linear_7_77)"/>
<defs>
<linearGradient id="paint0_linear_7_77" x1="5.12774" y1="8.95379" x2="10.7133" y2="12.6601" gradientUnits="userSpaceOnUse">
<stop stop-color="#FF9900"/>
<stop offset="0.979167" stop-color="#FFF734"/>
</linearGradient>
<linearGradient id="paint1_linear_7_77" x1="-2.5" y1="2.5" x2="18.5" y2="8" gradientUnits="userSpaceOnUse">
<stop stop-color="#FF9900"/>
<stop offset="0.979167" stop-color="#FFF734"/>
</linearGradient>
<linearGradient id="paint2_linear_7_77" x1="5.26274" y1="5.48182" x2="10.4487" y2="8.40452" gradientUnits="userSpaceOnUse">
<stop stop-color="#FF9900"/>
<stop offset="0.979167" stop-color="#FFF734"/>
</linearGradient>
</defs>
</svg>
