<svg width="17" height="16" viewBox="0 0 17 16" fill="none" xmlns="http://www.w3.org/2000/svg">
<g clip-path="url(#clip0_7_62)">
<path d="M0.271118 0.5C0.271118 0.367392 0.323797 0.240215 0.417565 0.146447C0.511333 0.0526784 0.63851 0 0.771118 0L3.77112 0C3.90373 0 4.0309 0.0526784 4.12467 0.146447C4.21844 0.240215 4.27112 0.367392 4.27112 0.5C4.27112 0.632608 4.21844 0.759785 4.12467 0.853553C4.0309 0.947322 3.90373 1 3.77112 1H1.27112V3.5C1.27112 3.63261 1.21844 3.75979 1.12467 3.85355C1.0309 3.94732 0.903726 4 0.771118 4C0.63851 4 0.511333 3.94732 0.417565 3.85355C0.323797 3.75979 0.271118 3.63261 0.271118 3.5V0.5ZM12.2711 0.5C12.2711 0.367392 12.3238 0.240215 12.4176 0.146447C12.5113 0.0526784 12.6385 0 12.7711 0L15.7711 0C15.9037 0 16.0309 0.0526784 16.1247 0.146447C16.2184 0.240215 16.2711 0.367392 16.2711 0.5V3.5C16.2711 3.63261 16.2184 3.75979 16.1247 3.85355C16.0309 3.94732 15.9037 4 15.7711 4C15.6385 4 15.5113 3.94732 15.4176 3.85355C15.3238 3.75979 15.2711 3.63261 15.2711 3.5V1H12.7711C12.6385 1 12.5113 0.947322 12.4176 0.853553C12.3238 0.759785 12.2711 0.632608 12.2711 0.5ZM0.771118 12C0.903726 12 1.0309 12.0527 1.12467 12.1464C1.21844 12.2402 1.27112 12.3674 1.27112 12.5V15H3.77112C3.90373 15 4.0309 15.0527 4.12467 15.1464C4.21844 15.2402 4.27112 15.3674 4.27112 15.5C4.27112 15.6326 4.21844 15.7598 4.12467 15.8536C4.0309 15.9473 3.90373 16 3.77112 16H0.771118C0.63851 16 0.511333 15.9473 0.417565 15.8536C0.323797 15.7598 0.271118 15.6326 0.271118 15.5V12.5C0.271118 12.3674 0.323797 12.2402 0.417565 12.1464C0.511333 12.0527 0.63851 12 0.771118 12ZM15.7711 12C15.9037 12 16.0309 12.0527 16.1247 12.1464C16.2184 12.2402 16.2711 12.3674 16.2711 12.5V15.5C16.2711 15.6326 16.2184 15.7598 16.1247 15.8536C16.0309 15.9473 15.9037 16 15.7711 16H12.7711C12.6385 16 12.5113 15.9473 12.4176 15.8536C12.3238 15.7598 12.2711 15.6326 12.2711 15.5C12.2711 15.3674 12.3238 15.2402 12.4176 15.1464C12.5113 15.0527 12.6385 15 12.7711 15H15.2711V12.5C15.2711 12.3674 15.3238 12.2402 15.4176 12.1464C15.5113 12.0527 15.6385 12 15.7711 12ZM4.27112 4H5.27112V5H4.27112V4Z" fill="url(#paint0_linear_7_62)"/>
<path d="M7.27112 2H2.27112V7H7.27112V2ZM3.27112 3H6.27112V6H3.27112V3ZM5.27112 11H4.27112V12H5.27112V11Z" fill="url(#paint1_linear_7_62)"/>
<path d="M7.27112 9H2.27112V14H7.27112V9ZM3.27112 10H6.27112V13H3.27112V10ZM11.2711 4H12.2711V5H11.2711V4Z" fill="url(#paint2_linear_7_62)"/>
<path d="M9.27112 2H14.2711V7H9.27112V2ZM10.2711 3V6H13.2711V3H10.2711ZM8.27112 8V10H9.27112V11H8.27112V12H10.2711V10H11.2711V12H12.2711V11H14.2711V10H11.2711V8H8.27112ZM10.2711 10H9.27112V9H10.2711V10ZM14.2711 12H13.2711V13H11.2711V14H14.2711V12ZM10.2711 14V13H8.27112V14H10.2711Z" fill="url(#paint3_linear_7_62)"/>
<path d="M12.2711 9H14.2711V8H12.2711V9Z" fill="url(#paint4_linear_7_62)"/>
</g>
<defs>
<linearGradient id="paint0_linear_7_62" x1="-3" y1="-0.500001" x2="13" y2="-0.5" gradientUnits="userSpaceOnUse">
<stop stop-color="#363A7B"/>
<stop offset="1" stop-color="#F7B600" stop-opacity="0.95"/>
</linearGradient>
<linearGradient id="paint1_linear_7_62" x1="1.24889" y1="1.6875" x2="6.24889" y2="1.6875" gradientUnits="userSpaceOnUse">
<stop stop-color="#363A7B"/>
<stop offset="1" stop-color="#F7B600" stop-opacity="0.95"/>
</linearGradient>
<linearGradient id="paint2_linear_7_62" x1="0.226669" y1="3.6875" x2="10.2267" y2="3.6875" gradientUnits="userSpaceOnUse">
<stop stop-color="#363A7B"/>
<stop offset="1" stop-color="#F7B600" stop-opacity="0.95"/>
</linearGradient>
<linearGradient id="paint3_linear_7_62" x1="7.04445" y1="1.625" x2="13.0444" y2="1.625" gradientUnits="userSpaceOnUse">
<stop stop-color="#363A7B"/>
<stop offset="1" stop-color="#F7B600" stop-opacity="0.95"/>
</linearGradient>
<linearGradient id="paint4_linear_7_62" x1="11.8622" y1="7.96875" x2="13.8622" y2="7.96875" gradientUnits="userSpaceOnUse">
<stop stop-color="#363A7B"/>
<stop offset="1" stop-color="#F7B600" stop-opacity="0.95"/>
</linearGradient>
<clipPath id="clip0_7_62">
<rect width="16" height="16" fill="white" transform="translate(0.271118)"/>
</clipPath>
</defs>
</svg>
